<svg width="209" height="124" viewBox="0 0 209 124" fill="none" xmlns="http://www.w3.org/2000/svg">
<path d="M95 0C96.1046 0 96.9869 0.899914 97.1233 1.99603C98.1057 9.89057 104.839 16 113 16C121.161 16 127.894 9.89057 128.877 1.99603C129.013 0.899913 129.895 0 131 0H193C201.837 0 209 7.16344 209 16V108C209 116.837 201.837 124 193 124H131C129.895 124 129.013 123.1 128.877 122.004C127.894 114.109 121.161 108 113 108C104.839 108 98.1057 114.109 97.1233 122.004C96.9869 123.1 96.1046 124 95 124H32C23.1634 124 16 116.837 16 108V80C16 78.8954 15.1001 78.0131 14.004 77.8767C6.10943 76.8943 0 70.1606 0 62C0 53.8394 6.10943 47.1057 14.004 46.1233C15.1001 45.9869 16 45.1046 16 44V16C16 7.16344 23.1634 0 32 0H95Z" fill="#D3A9FF"/>
</svg>
