<svg width="193" height="124" viewBox="0 0 193 124" fill="none" xmlns="http://www.w3.org/2000/svg">
<path d="M78 0C79.1046 0 79.9869 0.899914 80.1233 1.99603C81.1057 9.89057 87.8394 16 96 16C104.161 16 110.894 9.89057 111.877 1.99603C112.013 0.899913 112.895 0 114 0H177C185.837 0 193 7.16344 193 16V108C193 116.837 185.837 124 177 124H114C112.895 124 112.013 123.1 111.877 122.004C110.894 114.109 104.161 108 96 108C87.8394 108 81.1057 114.109 80.1233 122.004C79.9869 123.1 79.1046 124 78 124H16C7.16344 124 0 116.837 0 108V16C0 7.16344 7.16344 0 16 0H78Z" fill="#FFE600"/>
</svg>
