<svg width="48" height="48" viewBox="0 0 48 48" fill="none" xmlns="http://www.w3.org/2000/svg">
<path d="M4 40.0011H8M8 40.0011H20M8 40.0011V22.9054C8 21.8367 8 21.3021 8.12994 20.8048C8.2451 20.3642 8.43558 19.9471 8.69141 19.5703C8.98008 19.145 9.38128 18.7924 10.1855 18.0886L19.7887 9.68585C21.2797 8.38126 22.0252 7.72892 22.8648 7.48062C23.6052 7.26167 24.3944 7.26167 25.1348 7.48062C25.975 7.7291 26.7216 8.38206 28.2148 9.68863L37.8148 18.0886C38.6191 18.7923 39.0205 19.145 39.3091 19.5703C39.565 19.9471 39.754 20.3642 39.8691 20.8048C39.9991 21.3021 40 21.8367 40 22.9054V40.0011M20 40.0011H28M20 40.0011V32.0011C20 29.792 21.7909 28.0011 24 28.0011C26.2091 28.0011 28 29.792 28 32.0011V40.0011M28 40.0011H40M40 40.0011H44" stroke="black" stroke-width="2" stroke-linecap="round" stroke-linejoin="round"/>
</svg>
