<svg width="25" height="24" viewBox="0 0 25 24" fill="none" xmlns="http://www.w3.org/2000/svg">
<path d="M8.5 4H7.7002C6.58009 4 6.01962 4 5.5918 4.21799C5.21547 4.40973 4.90973 4.71547 4.71799 5.0918C4.5 5.51962 4.5 6.08009 4.5 7.2002V8M8.5 4H16.5M8.5 4V2M16.5 4H17.3002C18.4203 4 18.9796 4 19.4074 4.21799C19.7837 4.40973 20.0905 4.71547 20.2822 5.0918C20.5 5.5192 20.5 6.07899 20.5 7.19691V8M16.5 4V2M4.5 8V16.8002C4.5 17.9203 4.5 18.4801 4.71799 18.9079C4.90973 19.2842 5.21547 19.5905 5.5918 19.7822C6.0192 20 6.57899 20 7.69691 20H17.3031C18.421 20 18.98 20 19.4074 19.7822C19.7837 19.5905 20.0905 19.2842 20.2822 18.9079C20.5 18.4805 20.5 17.9215 20.5 16.8036V8M4.5 8H20.5M16.5 16H16.502L16.502 16.002L16.5 16.002V16ZM12.5 16H12.502L12.502 16.002L12.5 16.002V16ZM8.5 16H8.502L8.50195 16.002L8.5 16.002V16ZM16.502 12V12.002L16.5 12.002V12H16.502ZM12.5 12H12.502L12.502 12.002L12.5 12.002V12ZM8.5 12H8.502L8.50195 12.002L8.5 12.002V12Z" stroke="black" stroke-width="1.5" stroke-linecap="round" stroke-linejoin="round"/>
</svg>
