<svg width="26" height="22" viewBox="0 0 26 22" fill="none" xmlns="http://www.w3.org/2000/svg">
<path d="M9.65197 5H5.26693C3.77345 5 3.02616 5 2.45573 5.29065C1.95396 5.54631 1.54631 5.95396 1.29065 6.45573C1 7.02616 1 7.77345 1 9.26693V16.7336C1 18.2271 1 18.9728 1.29065 19.5432C1.54631 20.045 1.95396 20.454 2.45573 20.7096C3.0256 21 3.77199 21 5.26255 21H20.7375C22.228 21 22.9733 21 23.5432 20.7096C24.045 20.454 24.454 20.045 24.7096 19.5432C25 18.9733 25 18.228 25 16.7375V9.26255C25 7.77199 25 7.0256 24.7096 6.45573C24.454 5.95396 24.045 5.54631 23.5432 5.29065C22.9728 5 22.2271 5 20.7336 5H16.3478M9.65197 5H9.73438M9.65197 5C9.66867 5.00001 9.68624 5 9.70476 5L9.73438 5M9.65197 5C9.51048 4.99994 9.43119 4.99921 9.36849 4.99219C8.58504 4.90447 8.04771 4.15877 8.21224 3.38779C8.22755 3.31604 8.25781 3.22526 8.31774 3.04549L8.32031 3.03788C8.38875 2.83257 8.42297 2.72991 8.46077 2.63932C8.84782 1.71185 9.72429 1.0811 10.7266 1.00722C10.8245 1 10.932 1 11.1484 1H14.8514C15.0679 1 15.1763 1 15.2742 1.00722C16.2765 1.0811 17.152 1.71185 17.5391 2.63932C17.5769 2.72991 17.6113 2.83246 17.6797 3.03776C17.7413 3.22265 17.7721 3.31514 17.7877 3.38791C17.9522 4.15889 17.4157 4.90447 16.6323 4.99219C16.5696 4.99921 16.4895 4.99994 16.3478 5M9.73438 5H16.2653M16.2653 5H16.3478M16.2653 5L16.2949 5C16.3134 5 16.331 5.00001 16.3478 5M13 17C10.7909 17 9 15.2091 9 13C9 10.7909 10.7909 9 13 9C15.2091 9 17 10.7909 17 13C17 15.2091 15.2091 17 13 17Z" stroke="#999999" stroke-width="2" stroke-linecap="round" stroke-linejoin="round"/>
</svg>
