<svg width="48" height="48" viewBox="0 0 48 48" fill="none" xmlns="http://www.w3.org/2000/svg">
<path d="M6 22H8.09096M8.09096 22H39.909M8.09096 22C8.11322 21.8971 8.13954 21.795 8.16992 21.6942C8.24243 21.4537 8.34485 21.2223 8.55078 20.759L11.6433 13.8008C12.2547 12.4251 12.561 11.7368 13.0442 11.2324C13.4714 10.7866 13.9953 10.446 14.5762 10.2367C15.2333 10 15.9867 10 17.4922 10H30.5071C32.0126 10 32.7667 10 33.4239 10.2367C34.0048 10.446 34.5279 10.7866 34.9551 11.2324C35.438 11.7365 35.7436 12.4242 36.3542 13.798L39.4592 20.7843C39.6577 21.2308 39.7587 21.4581 39.8299 21.6942C39.8603 21.795 39.8867 21.8971 39.909 22M8.09096 22C8.06603 22.1153 8.0462 22.2317 8.03144 22.3486C8 22.5979 8 22.8513 8 23.3584V34M39.909 22H42M39.909 22C39.9341 22.1153 39.954 22.2317 39.9688 22.3486C40 22.5964 40 22.8484 40 23.3493V34.0002M40 34.0002L32 34.0002M40 34.0002V35.9998C40 38.2089 38.2091 40 36 40C33.7909 40 32 38.2091 32 36V34.0002M32 34.0002L16 34M16 34H8M16 34V36C16 38.2091 14.2091 40 12 40C9.79086 40 8 38.2091 8 36V34" stroke="black" stroke-width="2" stroke-linecap="round" stroke-linejoin="round"/>
</svg>
