<svg width="48" height="48" viewBox="0 0 48 48" fill="none" xmlns="http://www.w3.org/2000/svg">
<path d="M18 4V3H17V4H18ZM22 8H23V7.99994L22 8ZM18 26V25H17V26H18ZM14 26H15V25H14V26ZM10 8L9 7.99994V8H10ZM14 4H15V3H14V4ZM14 16H13V17H14V16ZM18 16V17H19V16H18ZM38 8H39V7.99994L38 8ZM34 30H35V29H34V30ZM28 8L27 7.99994V8H28ZM18 4V5C19.6567 5 20.9999 6.34321 21 8.00006L22 8L23 7.99994C22.9998 5.23873 20.7614 3 18 3V4ZM22 8H21V22H22H23V8H22ZM22 22H21C21 23.6569 19.6569 25 18 25V26V27C20.7614 27 23 24.7614 23 22H22ZM18 26H17V42H18H19V26H18ZM18 42H17C17 42.5523 16.5523 43 16 43V44V45C17.6569 45 19 43.6569 19 42H18ZM16 44V43C15.4477 43 15 42.5523 15 42H14H13C13 43.6569 14.3431 45 16 45V44ZM14 42H15V26H14H13V42H14ZM14 26V25C12.3431 25 11 23.6569 11 22H10H9C9 24.7614 11.2386 27 14 27V26ZM10 22H11V8H10H9V22H10ZM10 8L11 8.00006C11.0001 6.34321 12.3433 5 14 5V4V3C11.2386 3 9.00016 5.23873 9 7.99994L10 8ZM14 4H13V16H14H15V4H14ZM14 16V17H18V16V15H14V16ZM18 16H19V4H18H17V16H18ZM34 4V5C35.6567 5 36.9999 6.34321 37 8.00006L38 8L39 7.99994C38.9998 5.23873 36.7614 3 34 3V4ZM38 8H37V42H38H39V8H38ZM38 42H37C37 42.5523 36.5523 43 36 43V44V45C37.6569 45 39 43.6569 39 42H38ZM36 44V43C35.4477 43 35 42.5523 35 42H34H33C33 43.6569 34.3431 45 36 45V44ZM34 42H35V30H34H33V42H34ZM34 30V29H32V30V31H34V30ZM32 30V29C30.3431 29 29 27.6569 29 26H28H27C27 28.7614 29.2386 31 32 31V30ZM28 26H29V8H28H27V26H28ZM28 8L29 8.00006C29.0001 6.34321 30.3433 5 32 5V4V3C29.2386 3 27.0002 5.23873 27 7.99994L28 8ZM32 4V5H34V4V3H32V4Z" fill="black"/>
</svg>
