<svg width="48" height="48" viewBox="0 0 48 48" fill="none" xmlns="http://www.w3.org/2000/svg">
<path d="M16 16H13.5547C10.9554 16 9.6569 16 8.73242 16.5303C7.92116 16.9956 7.29754 17.7307 6.9719 18.6074C6.60105 19.6059 6.81452 20.8867 7.24129 23.4473L7.24219 23.4521L9.10885 34.6521C9.42551 36.5521 9.58488 37.5024 10.0589 38.2153C10.4768 38.8437 11.0634 39.3405 11.752 39.6494C12.5331 39.9998 13.4957 40 15.4219 40H32.5786C34.5048 40 35.4668 39.9998 36.2479 39.6494C36.9365 39.3405 37.5235 38.8437 37.9414 38.2153C38.4155 37.5024 38.574 36.5521 38.8906 34.6521L40.7573 23.4521L40.7591 23.4443C41.1856 20.8857 41.3989 19.6055 41.0282 18.6074C40.7026 17.7307 40.0804 16.9956 39.2692 16.5303C38.3447 16 37.044 16 34.4448 16H32M16 16H32M16 16C16 11.5817 19.5817 8 24 8C28.4183 8 32 11.5817 32 16" stroke="black" stroke-width="2" stroke-linecap="round" stroke-linejoin="round"/>
</svg>
