<svg width="48" height="48" viewBox="0 0 48 48" fill="none" xmlns="http://www.w3.org/2000/svg">
<path d="M9.49582 15.291L8.83338 22.5779C8.73526 23.6571 8.68579 24.2012 8.7756 24.7178C8.85585 25.1793 9.01612 25.6234 9.24992 26.0293C9.51259 26.4853 9.90085 26.8736 10.6729 27.6457L21.0239 37.9967C22.598 39.5708 23.3855 40.3582 24.2959 40.654C25.0993 40.9151 25.9661 40.9157 26.7694 40.6546C27.6828 40.3579 28.4764 39.5652 30.0605 37.9811L37.9801 30.0615C39.5641 28.4775 40.3549 27.6858 40.6516 26.7725C40.9126 25.9691 40.9111 25.1033 40.6501 24.2999C40.3533 23.3866 39.5637 22.5951 37.9797 21.011L27.6542 10.6856C26.8751 9.90642 26.4854 9.51681 26.0273 9.25294C25.6214 9.01913 25.1772 8.85818 24.7157 8.77794C24.1949 8.68737 23.6459 8.73716 22.5486 8.83692L15.289 9.49689C13.3995 9.66866 12.4541 9.75493 11.7148 10.1661C11.0629 10.5286 10.5255 11.0659 10.163 11.7178C9.75396 12.4534 9.66863 13.3921 9.49858 15.2628L9.49582 15.291Z" stroke="black" stroke-width="2" stroke-linecap="round" stroke-linejoin="round"/>
<path d="M19.4252 19.4269C20.2062 18.6459 20.2062 17.3795 19.4252 16.5985C18.6441 15.8174 17.3769 15.8174 16.5958 16.5985C15.8148 17.3795 15.814 18.6456 16.5951 19.4266C17.3761 20.2077 18.6441 20.208 19.4252 19.4269Z" stroke="black" stroke-width="2" stroke-linecap="round" stroke-linejoin="round"/>
</svg>
