<svg width="48" height="48" viewBox="0 0 48 48" fill="none" xmlns="http://www.w3.org/2000/svg">
<path d="M28 12H12C10.1362 12 9.20383 12 8.46875 12.3045C7.48864 12.7105 6.71046 13.4896 6.30448 14.4697C6 15.2048 6 16.1367 6 18.0005C9.31371 18.0005 12 20.6858 12 23.9995C12 27.3132 9.31371 30 6 30C6 31.8638 6 32.7956 6.30448 33.5307C6.71046 34.5108 7.48864 35.2893 8.46875 35.6953C9.20383 35.9998 10.1362 36 12 36H28M28 12H36C37.8638 12 38.7957 12 39.5307 12.3045C40.5108 12.7105 41.2893 13.4896 41.6953 14.4697C41.9998 15.2048 41.9998 16.1367 41.9998 18.0005C38.6861 18.0005 36 20.6863 36 24C36 27.3137 38.6861 30 41.9998 30C41.9998 31.8638 41.9998 32.7957 41.6953 33.5307C41.2893 34.5108 40.5108 35.2893 39.5307 35.6953C38.7957 35.9998 37.8638 36 36 36H28M28 12V36" stroke="black" stroke-width="2" stroke-linecap="round" stroke-linejoin="round"/>
</svg>
